# AST/ASF file generated using VICON BodyLanguage
# -----------------------------------------------
:version 1.10
:name VICON
:units
  mass 1.0
  length 0.45
  angle deg
:documentation
   .ast/.asf automatically generated from VICON data using
   VICON BodyBuilder and BodyLanguage model FoxedUp or BRILLIANT.MOD
:root
   order TX TY TZ RX RY RZ
   axis XYZ
   position 0 0 0  
   orientation 0 0 0 
:bonedata
  begin
     id 1 
     name lhipjoint
     direction 0.570549 -0.739093 0.358072 
     length 2.41801 
     axis 0 0 0  XYZ
  end
  begin
     id 2 
     name lfemur
     direction 0.34202 -0.939693 0  
     length 7.44434  
     axis 0 0 20  XYZ
    dof rx ry rz
    limits (-160.0 20.0)
           (-70.0 70.0)
           (-60.0 70.0)
  end
  begin
     id 3 
     name ltibia
     direction 0.34202 -0.939693 0   
     length 7.60047   
     axis 0 0 20   XYZ
    dof rx
    limits (-10.0 170.0)
  end
  begin
     id 4 
     name lfoot
     direction 0.0909041 -0.249757 0.964032   
     length 2.03437   
     axis -90 7.62852e-016 20   XYZ
    dof rx rz
    limits (-45.0 90.0)
           (-70.0 20.0)
  end
  begin
     id 5 
     name ltoes
     direction 1.53547e-011 -4.2174e-011 1   
     length 1.02054   
     axis -90 7.62852e-016 20   XYZ
    dof rx
    limits (-90.0 20.0)
  end
  begin
     id 6 
     name rhipjoint
     direction -0.558096 -0.746754 0.361784   
     length 2.3932  
     axis 0 0 0  XYZ 
  end
  begin
     id 7 
     name rfemur
     direction -0.34202 -0.939693 0   
     length 7.3886   
     axis 0 0 -20   XYZ
    dof rx ry rz
    limits (-160.0 20.0)
           (-70.0 70.0)
           (-70.0 60.0)
  end
  begin
     id 8 
     name rtibia
     direction -0.34202 -0.939693 0   
     length 7.4839   
     axis 0 0 -20   XYZ
    dof rx
    limits (-10.0 170.0)
 end
 begin
     id 9 
     name rfoot
     direction -0.114619 -0.314914 0.942174   
     length 2.25127  
     axis -90 -7.62852e-016 -20   XYZ
    dof rx rz
    limits (-45.0 90.0)
           (-20.0 70.0)
  end
  begin
     id 10 
     name rtoes
     direction -1.53518e-011 -4.21881e-011 1   
     length 1.11821   
     axis -90 -7.62852e-016 -20   XYZ
    dof rx
    limits (-90.0 20.0)
  end
  begin
     id 11 
     name lowerback
     direction -0.00902269 0.996426 -0.0839821   
     length 2.25052   
     axis 0 0 0   XYZ
    dof rx ry rz
    limits (-20.0 45.0)
           (-30.0 30.0)
           (-30.0 30.0)
  end
  begin
     id 12 
     name upperback
     direction 0.0370973 0.999169 -0.0168941   
     length 2.24876   
     axis 0 0 0   XYZ
    dof rx ry rz
    limits (-20.0 45.0)
           (-30.0 30.0)
           (-30.0 30.0)
  end
  begin
     id 13 
     name thorax
     direction 0.0402726 0.998931 0.0227027   
     length 2.26408   
     axis 0 0 0   XYZ
    dof rx ry rz
    limits (-20.0 45.0)
           (-30.0 30.0)
           (-30.0 30.0)
  end
  begin
     id 14 
     name lowerneck
     direction -0.0733697 0.98508 0.155675   
     length 1.58204   
     axis 0 0 0   XYZ
    dof rx ry rz
    limits (-20.0 45.0)
           (-30.0 30.0)
           (-30.0 30.0)
  end
  begin
     id 15 
     name upperneck
     direction 0.0426554 0.993501 -0.105526   
     length 1.61222   
     axis 0 0 0   XYZ
    dof rx ry rz
    limits (-20.0 45.0)
           (-30.0 30.0)
           (-30.0 30.0)
  end
  begin
     id 16
     name head
     direction 0.020792 0.998384 -0.0528868  
     length 1.61527  
     axis 0 0 0   XYZ
    dof rx ry rz
    limits (-20.0 45.0)
           (-30.0 30.0)
           (-30.0 30.0)
  end
  begin
     id 17 
     name lclavicle
     direction 0.967109 0.155462 -0.201325  
     length 3.59357  
     axis 0 0 0   XYZ
    dof ry rz
    limits (-20.0 10.0)
           (0.0 20.0)
  end
  begin
     id 18 
     name lhumerus
     direction 1 -4.48968e-011 2.38195e-027   
     length 5.38154   
     axis 180 -30 -90   XYZ
    dof rx ry rz
    limits (-60.0 90.0)
           (-90.0 90.0)
           (-90.0 90.0)
  end
  begin
     id 19
     name lradius
     direction 1 -4.48961e-011 4.85371e-027   
     length 3.33312   
     axis 180 -30 -90   XYZ
    dof rx
    limits (-10.0 170.0)
  end
  begin
     id 20
     name lwrist
     direction 1 -4.48961e-011 4.76515e-027   
     length 1.66656   
     axis -3.27502e-015 90 90   XYZ
    dof ry
    limits (-180.0 0.0)
 end
  begin
     id 21 
     name lhand
     direction 1 -4.48951e-011 9.53074e-027   
     length 0.710789   
     axis -6.08098e-015 90 90   XYZ
    dof rx rz
    limits (-90.0 90.0)
           (-45.0 45.0)
  end
  begin
     id 22 
     name lfingers
     direction 1 -4.48953e-011 1.90613e-026   
     length 0.573057   
     axis -1.21619e-014 90 90   XYZ
    dof rx
    limits (0.0 90.0)
  end
  begin
     id 23
     name lthumb
     direction 0.707107 -6.34973e-011 0.707107   
     length 0.822798   
     axis -90 45 -9.86923e-015   XYZ
    dof rx rz
    limits (-45.0 45.0)
           (-45.0 45.0)
  end
  begin
     id 24 
     name rclavicle
     direction -0.9585 0.265289 -0.104398   
     length 3.42039  
     axis 0 0 0   XYZ 
    dof ry rz
    limits (-10.0 20.0)
           (-20.0 0.0)
  end
  begin
     id 25 
     name rhumerus
     direction -1 -4.48977e-011 2.21478e-027  
     length 5.16954   
     axis 180 30 90   XYZ
    dof rx ry rz
    limits (-90.0 60.0)
           (-90.0 90.0)
           (-90.0 90.0)
  end
  begin
     id 26 
     name rradius
     direction -1 -4.48967e-011 5.63677e-027   
     length 3.38287   
     axis 180 30 90   XYZ
    dof rx
    limits (-10.0 170.0)
  end
  begin
     id 27 
     name rwrist
     direction -1 -4.48967e-011 4.76501e-027   
     length 1.69144   
     axis -3.27502e-015 -90 -90   XYZ
    dof ry
    limits (-180.0 0.0)
  end
  begin
     id 28
     name rhand
     direction -1 -4.48902e-011 9.53292e-027   
     length 0.817967   
     axis -6.08098e-015 -90 -90   XYZ
    dof rx rz
    limits (-90.0 90.0)
           (-45.0 45.0)
  end
  begin
     id 29
     name rfingers
     direction -1 -4.49012e-011 1.90561e-026   
     length 0.659466   
     axis -1.21619e-014 -90 -90   XYZ
    dof rx
    limits (0.0 90.0)
  end
  begin
     id 30
     name rthumb
     direction -0.707107 -6.34944e-011 0.707107   
     length 0.946865   
     axis -90 -45 9.86923e-015   XYZ
    dof rx rz
    limits (-45.0 45.0)
           (-45.0 45.0)
  end
:hierarchy
  begin
    root lhipjoint rhipjoint lowerback
    lhipjoint lfemur
    lfemur ltibia
    ltibia lfoot
    lfoot ltoes
    rhipjoint rfemur
    rfemur rtibia
    rtibia rfoot
    rfoot rtoes
    lowerback upperback
    upperback thorax
    thorax lowerneck lclavicle rclavicle
    lowerneck upperneck
    upperneck head
    lclavicle lhumerus
    lhumerus lradius
    lradius lwrist
    lwrist lhand lthumb
    lhand lfingers
    rclavicle rhumerus
    rhumerus rradius
    rradius rwrist
    rwrist rhand rthumb
    rhand rfingers
  end

#!OML:ASF F:\twosubjects\two\wednesday\Session 1\Justin1.ASF
:FULLY-SPECIFIED
:DEGREES
99
root 3.33728 17.5611 -0.571533 1.47625 -6.31187 -8.30865
lowerback 0.197967 2.47783 8.37711
upperback 0.558391 3.26401 4.53846
thorax 0.669456 1.65412 0.0244843
lowerneck -18.0894 -2.8649 -9.47029
upperneck 21.5349 -2.52173 5.1617
head 10.0422 -1.34402 3.0509
rclavicle -1.14301e-015 -3.65764e-014
rhumerus -7.70522 -10.5317 -84.8249
rradius 32.9088
rwrist -20.8724
rhand -17.1036 17.1157
rfingers 7.12502
rthumb 9.13539 -12.6665
lclavicle -1.14301e-015 -3.65764e-014
lhumerus -33.7623 14.9771 82.3536
lradius 25.4014
lwrist -8.85052
lhand -1.02123 35.2572
lfingers 7.12502
lthumb 24.6119 63.6949
rfemur 13.9673 1.75543 34.3421
rtibia 2.22639e-014
rfoot -8.73773 4.56386
rtoes 3.91538
lfemur -36.164 1.55935 -7.70955
ltibia 28.4361
lfoot -22.1562 8.41998
ltoes -25.6618
100
root 3.34888 17.5573 -0.407565 1.43323 -6.25474 -8.18002
lowerback 0.49056 2.43744 8.3287
upperback 0.358398 3.2639 4.47683
thorax 0.298088 1.63915 -0.0334528
lowerneck -17.7337 -2.82839 -9.27373
upperneck 21.2359 -2.49663 4.91706
head 9.86146 -1.34412 2.92997
rclavicle -3.23025e-015 -1.66979e-014
rhumerus -7.19296 -10.1935 -84.8592
rradius 33.4112
rwrist -21.2416
rhand -17.071 17.046
rfingers 7.12502
rthumb 9.16686 -12.7347
lclavicle -3.23025e-015 -1.66979e-014
lhumerus -35.2596 15.9032 81.62
lradius 24.9011
lwrist -9.53496
lhand -1.26179 35.1227
lfingers 7.12502
lthumb 24.3813 63.5916
rfemur 14.5596 1.61164 34.138
rtibia 4.13472e-014
rfoot -9.18679 4.52033
rtoes 4.02446
lfemur -36.6602 0.955161 -7.68863
ltibia 28.0147
lfoot -22.2294 8.63881
ltoes -26.5623
101
root 3.35127 17.5287 -0.279318 1.93265 -6.58307 -8.99942
lowerback 1.07456 2.67992 9.04548
upperback -0.205638 3.71544 4.65256
thorax -0.555627 1.82324 -0.288227
lowerneck -17.2679 -2.93575 -9.54117
upperneck 21.3017 -2.66433 5.0989
head 9.81846 -1.42916 3.01832
rclavicle 2.5345e-015 3.26007e-014
rhumerus -7.07739 -10.3042 -84.6632
rradius 34.0289
rwrist -21.5984
rhand -17.1392 17.3027
rfingers 7.12502
rthumb 9.10107 -12.4809
lclavicle 2.5345e-015 3.26007e-014
lhumerus -36.9343 15.9716 81.1151
lradius 24.7456
lwrist -10.5118
lhand -0.364846 35.7251
lfingers 7.12502
lthumb 25.2409 64.0756
rfemur 14.6153 1.94696 35.0159
rtibia 9.54166e-015
rfoot -9.36925 4.45484
rtoes 4.81826
lfemur -37.6204 0.680178 -6.45436
ltibia 27.6234
lfoot -22.1346 9.41644
ltoes -25.7615
102
root 3.36524 17.5215 -0.0877115 1.82641 -7.02174 -8.09404
lowerback 0.967696 2.88106 8.21291
upperback -0.134339 3.95267 4.31935
thorax -0.435632 1.95046 -0.170785
lowerneck -17.3966 -2.94795 -9.21106
upperneck 21.2554 -2.69237 4.82169
head 9.81942 -1.44463 2.85975
rclavicle -5.26779e-015 3.18055e-015
rhumerus -6.37191 -10.2813 -84.7751
rradius 34.4442
rwrist -21.9501
rhand -17.5468 17.822
rfingers 7.12502
rthumb 8.7077 -11.9784
lclavicle -5.26779e-015 3.18055e-015
lhumerus -37.9181 16.0143 80.7139
lradius 24.3836
lwrist -11.0611
lhand 1.02566 36.4919
lfingers 7.12502
lthumb 26.5724 64.6478
rfemur 15.4641 2.29008 33.8992
rtibia 3.18055e-015
rfoot -9.77303 4.4595
rtoes 6.00651
lfemur -37.6106 1.11914 -7.74421
ltibia 27.2173
lfoot -21.9652 9.79093
ltoes -25.4688
103
root 3.37172 17.4959 0.0755341 2.05887 -7.30256 -8.48917
lowerback 0.79153 2.93072 8.42609
upperback -0.0211258 3.98943 4.48184
thorax -0.214211 1.97692 -0.10523
lowerneck -17.6364 -2.86663 -8.90387
upperneck 21.0919 -2.52956 4.37645
head 9.78372 -1.39022 2.66989
rclavicle -3.68746e-014 -5.56597e-015
rhumerus -5.34162 -9.74305 -84.9446
rradius 34.8304
rwrist -22.2395
rhand -18.2463 17.9998
rfingers 7.12502
rthumb 8.03258 -11.8275
lclavicle -3.68746e-014 -5.56597e-015
lhumerus -38.5909 16.9097 80.1761
lradius 23.7477
lwrist -11.6433
lhand 2.20489 37.1759
lfingers 7.12502
lthumb 27.7005 65.1557
rfemur 15.8548 2.52974 34.2669
rtibia 3.18055e-014
rfoot -9.76501 4.46081
rtoes 5.52322
lfemur -38.0538 2.04353 -7.71773
ltibia 26.9497
lfoot -21.2696 9.54234
ltoes -26.2155
